<svg width="382" height="296" viewBox="0 0 382 296" fill="none" xmlns="http://www.w3.org/2000/svg">
<path d="M180.767 1.22933C182.089 0.649773 183.57 1.61789 183.57 3.06094V47.7886C183.57 48.5821 183.101 49.3005 182.375 49.6197L74.6203 96.962C73.0243 97.6632 73.0269 99.9284 74.6244 100.626L182.371 147.674C183.099 147.992 183.57 148.712 183.57 149.507V191.857C183.57 193.283 182.121 194.251 180.803 193.704L1.23295 119.131C0.486496 118.821 0 118.093 0 117.284V81.8094C0 81.0155 0.469649 80.2967 1.19677 79.9778L180.767 1.22933Z" fill="#203167"/>
<path d="M200.782 1.22933C199.46 0.649774 197.979 1.61789 197.979 3.06094V47.7886C197.979 48.5821 198.448 49.3005 199.174 49.6197L306.929 96.962C308.525 97.6632 308.522 99.9284 306.925 100.626L199.178 147.674C198.45 147.992 197.979 148.712 197.979 149.507V191.857C197.979 193.283 199.428 194.251 200.746 193.704L380.316 119.131C381.063 118.821 381.549 118.093 381.549 117.284V81.8094C381.549 81.0155 381.079 80.2967 380.352 79.9778L200.782 1.22933Z" fill="#203167"/>
<path d="M75.5898 244.778C75.5898 245.579 76.0676 246.303 76.8042 246.618L190.081 295.008C190.586 295.224 191.157 295.222 191.661 295.004L304.763 246.011C305.494 245.694 305.968 244.973 305.968 244.176V169.047C305.968 167.612 304.503 166.644 303.183 167.207L263.12 184.289C262.383 184.603 261.905 185.327 261.905 186.129V214.895C261.905 215.696 261.427 216.419 260.69 216.734L191.657 246.221C191.156 246.435 190.588 246.435 190.086 246.221L121.02 216.734C120.283 216.419 119.805 215.696 119.805 214.895V185.537C119.805 184.727 119.316 183.996 118.566 183.688L78.3503 167.155C77.0341 166.614 75.5898 167.581 75.5898 169.004V244.778Z" fill="#203167"/>
</svg>
